<?xml version="1.0" encoding="UTF-8" standalone="no"?>
<!DOCTYPE svg PUBLIC "-//W3C//DTD SVG 1.1//EN"
 "http://www.w3.org/Graphics/SVG/1.1/DTD/svg11.dtd">
<!-- Generated by graphviz version 13.1.2 (20250808.2320)
 -->
<!-- Pages: 1 -->
<svg width="225pt" height="710pt"
 viewBox="0.00 0.00 225.00 710.00" xmlns="http://www.w3.org/2000/svg" xmlns:xlink="http://www.w3.org/1999/xlink">
<g id="graph0" class="graph" transform="scale(1 1) rotate(0) translate(4 706)">
<polygon fill="white" stroke="none" points="-4,4 -4,-706 220.75,-706 220.75,4 -4,4"/>
<!-- 1 -->
<g id="node1" class="node">
<title>1</title>
<path fill="lightcoral" stroke="black" d="M145,-702C145,-702 115,-702 115,-702 109,-702 103,-696 103,-690 103,-690 103,-678 103,-678 103,-672 109,-666 115,-666 115,-666 145,-666 145,-666 151,-666 157,-672 157,-678 157,-678 157,-690 157,-690 157,-696 151,-702 145,-702"/>
<text xml:space="preserve" text-anchor="middle" x="130" y="-677.38" font-family="Verdana" font-size="20.00">h1</text>
</g>
<!-- 2 -->
<g id="node2" class="node">
<title>2</title>
<path fill="lightpink" stroke="black" d="M68,-535.5C68,-535.5 38,-535.5 38,-535.5 32,-535.5 26,-529.5 26,-523.5 26,-523.5 26,-511.5 26,-511.5 26,-505.5 32,-499.5 38,-499.5 38,-499.5 68,-499.5 68,-499.5 74,-499.5 80,-505.5 80,-511.5 80,-511.5 80,-523.5 80,-523.5 80,-529.5 74,-535.5 68,-535.5"/>
<text xml:space="preserve" text-anchor="middle" x="53" y="-512.42" font-family="Verdana" font-size="16.00">h2</text>
</g>
<!-- 1&#45;&gt;2 -->
<g id="edge1" class="edge">
<title>1&#45;&gt;2</title>
<path fill="none" stroke="black" stroke-dasharray="5,2" d="M121.91,-665.71C108.56,-637.2 81.84,-580.11 65.88,-546.01"/>
<polygon fill="black" stroke="black" points="69.15,-544.75 61.74,-537.18 62.81,-547.72 69.15,-544.75"/>
<polygon fill="lightgray" stroke="none" points="96.11,-589.5 96.11,-612 114.86,-612 114.86,-589.5 96.11,-589.5"/>
<polygon fill="none" stroke="black" points="96.11,-589.5 96.11,-612 114.86,-612 114.86,-589.5 96.11,-589.5"/>
<text xml:space="preserve" text-anchor="start" x="99.11" y="-595.7" font-family="Times New Roman,serif" font-size="14.00">e1</text>
</g>
<!-- 3 -->
<g id="node3" class="node">
<title>3</title>
<path fill="lightblue" stroke="black" d="M42,-369C42,-369 12,-369 12,-369 6,-369 0,-363 0,-357 0,-357 0,-345 0,-345 0,-339 6,-333 12,-333 12,-333 42,-333 42,-333 48,-333 54,-339 54,-345 54,-345 54,-357 54,-357 54,-363 48,-369 42,-369"/>
<text xml:space="preserve" text-anchor="middle" x="27" y="-346.32" font-family="Verdana" font-size="14.00">h3</text>
</g>
<!-- 2&#45;&gt;3 -->
<g id="edge2" class="edge">
<title>2&#45;&gt;3</title>
<path fill="none" stroke="black" d="M50.27,-499.21C45.8,-470.95 36.89,-414.59 31.49,-380.4"/>
<polygon fill="black" stroke="black" points="34.99,-380.13 29.97,-370.8 28.08,-381.23 34.99,-380.13"/>
<polygon fill="lightgray" stroke="none" points="41.56,-423 41.56,-445.5 60.31,-445.5 60.31,-423 41.56,-423"/>
<polygon fill="none" stroke="black" points="41.56,-423 41.56,-445.5 60.31,-445.5 60.31,-423 41.56,-423"/>
<text xml:space="preserve" text-anchor="start" x="44.56" y="-429.2" font-family="Times New Roman,serif" font-size="14.00">e2</text>
</g>
<!-- 4 -->
<g id="node4" class="node">
<title>4</title>
<polygon fill="none" stroke="black" points="80,-202.5 26,-202.5 26,-166.5 80,-166.5 80,-202.5"/>
<text xml:space="preserve" text-anchor="middle" x="53" y="-180.97" font-family="Verdana" font-size="12.00">text</text>
</g>
<!-- 3&#45;&gt;4 -->
<g id="edge3" class="edge">
<title>3&#45;&gt;4</title>
<path fill="none" stroke="black" stroke-dasharray="5,2" d="M29.73,-332.71C34.2,-304.45 43.11,-248.09 48.51,-213.9"/>
<polygon fill="black" stroke="black" points="51.92,-214.73 50.03,-204.3 45.01,-213.63 51.92,-214.73"/>
<polygon fill="lightgray" stroke="none" points="41.56,-256.5 41.56,-279 60.31,-279 60.31,-256.5 41.56,-256.5"/>
<polygon fill="none" stroke="black" points="41.56,-256.5 41.56,-279 60.31,-279 60.31,-256.5 41.56,-256.5"/>
<text xml:space="preserve" text-anchor="start" x="44.56" y="-262.7" font-family="Times New Roman,serif" font-size="14.00">e3</text>
</g>
<!-- 5 -->
<g id="node5" class="node">
<title>5</title>
<polygon fill="black" stroke="black" points="160,-36 90,-36 90,0 160,0 160,-36"/>
<text xml:space="preserve" text-anchor="middle" x="125" y="-13.32" font-family="Verdana" font-size="14.00" fill="white">formula</text>
</g>
<!-- 4&#45;&gt;5 -->
<g id="edge4" class="edge">
<title>4&#45;&gt;5</title>
<path fill="none" stroke="black" d="M60.57,-166.21C73.05,-137.7 98.04,-80.61 112.96,-46.51"/>
<polygon fill="black" stroke="black" points="116.01,-48.26 116.82,-37.7 109.6,-45.45 116.01,-48.26"/>
<polygon fill="lightgray" stroke="none" points="93.31,-90 93.31,-112.5 112.06,-112.5 112.06,-90 93.31,-90"/>
<polygon fill="none" stroke="black" points="93.31,-90 93.31,-112.5 112.06,-112.5 112.06,-90 93.31,-90"/>
<text xml:space="preserve" text-anchor="start" x="96.31" y="-96.2" font-family="Times New Roman,serif" font-size="14.00">e4</text>
</g>
<!-- 5&#45;&gt;1 -->
<g id="edge5" class="edge">
<title>5&#45;&gt;1</title>
<path fill="none" stroke="black" stroke-dasharray="5,2" d="M138.39,-36.14C159.46,-64.88 198,-125.38 198,-183.5 198,-518.5 198,-518.5 198,-518.5 198,-570.37 168.77,-624.93 148.64,-656.36"/>
<polygon fill="black" stroke="black" points="145.89,-654.18 143.31,-664.46 151.73,-658.03 145.89,-654.18"/>
<polygon fill="lightgray" stroke="none" points="198,-339.75 198,-362.25 216.75,-362.25 216.75,-339.75 198,-339.75"/>
<polygon fill="none" stroke="black" points="198,-339.75 198,-362.25 216.75,-362.25 216.75,-339.75 198,-339.75"/>
<text xml:space="preserve" text-anchor="start" x="201" y="-345.95" font-family="Times New Roman,serif" font-size="14.00">e5</text>
</g>
</g>
</svg>
